<mxfile host="app.diagrams.net" modified="2024-02-02T09:13:21.924Z" agent="Mozilla/5.0 (Windows NT 10.0; Win64; x64) AppleWebKit/537.36 (KHTML, like Gecko) Chrome/120.0.0.0 Safari/537.36" etag="XQGpo5KWFd6pG4E6AAYJ" version="23.1.1" type="github">
  <diagram name="Page-1" id="dW2J1yE51En7Umc0_C7J">
    <mxGraphModel dx="1293" dy="616" grid="1" gridSize="10" guides="1" tooltips="1" connect="1" arrows="1" fold="1" page="1" pageScale="1" pageWidth="850" pageHeight="1100" math="0" shadow="0">
      <root>
        <mxCell id="0" />
        <mxCell id="1" parent="0" />
        <mxCell id="cIGKvNe0aCiiyJrsT4cx-12" style="edgeStyle=orthogonalEdgeStyle;rounded=0;orthogonalLoop=1;jettySize=auto;html=1;entryX=0;entryY=0.75;entryDx=0;entryDy=0;" edge="1" parent="1" source="cIGKvNe0aCiiyJrsT4cx-13" target="cIGKvNe0aCiiyJrsT4cx-11">
          <mxGeometry relative="1" as="geometry">
            <Array as="points">
              <mxPoint x="195" y="457" />
            </Array>
          </mxGeometry>
        </mxCell>
        <mxCell id="cIGKvNe0aCiiyJrsT4cx-1" value="medallion-secheduler-service&lt;br&gt;" style="whiteSpace=wrap;html=1;aspect=fixed;" vertex="1" parent="1">
          <mxGeometry x="150" y="220" width="90" height="90" as="geometry" />
        </mxCell>
        <mxCell id="cIGKvNe0aCiiyJrsT4cx-2" value="data-service" style="whiteSpace=wrap;html=1;aspect=fixed;" vertex="1" parent="1">
          <mxGeometry x="580" y="230" width="80" height="80" as="geometry" />
        </mxCell>
        <mxCell id="cIGKvNe0aCiiyJrsT4cx-7" value="getAllDoctors" style="text;html=1;strokeColor=none;fillColor=none;align=center;verticalAlign=middle;whiteSpace=wrap;rounded=0;" vertex="1" parent="1">
          <mxGeometry x="400" y="230" width="60" height="30" as="geometry" />
        </mxCell>
        <mxCell id="cIGKvNe0aCiiyJrsT4cx-10" value="1" style="ellipse;whiteSpace=wrap;html=1;aspect=fixed;strokeWidth=2;fontFamily=Tahoma;spacingBottom=4;spacingRight=2;strokeColor=#d3d3d3;" vertex="1" parent="1">
          <mxGeometry x="425" y="205" width="20" height="20" as="geometry" />
        </mxCell>
        <mxCell id="cIGKvNe0aCiiyJrsT4cx-22" style="edgeStyle=orthogonalEdgeStyle;rounded=0;orthogonalLoop=1;jettySize=auto;html=1;entryX=0.5;entryY=1;entryDx=0;entryDy=0;" edge="1" parent="1" source="cIGKvNe0aCiiyJrsT4cx-11" target="cIGKvNe0aCiiyJrsT4cx-2">
          <mxGeometry relative="1" as="geometry" />
        </mxCell>
        <mxCell id="cIGKvNe0aCiiyJrsT4cx-11" value="consumer" style="whiteSpace=wrap;html=1;aspect=fixed;" vertex="1" parent="1">
          <mxGeometry x="380" y="396.5" width="80" height="80" as="geometry" />
        </mxCell>
        <mxCell id="cIGKvNe0aCiiyJrsT4cx-15" value="" style="edgeStyle=orthogonalEdgeStyle;rounded=0;orthogonalLoop=1;jettySize=auto;html=1;entryX=0;entryY=0.75;entryDx=0;entryDy=0;" edge="1" parent="1" source="cIGKvNe0aCiiyJrsT4cx-1" target="cIGKvNe0aCiiyJrsT4cx-13">
          <mxGeometry relative="1" as="geometry">
            <mxPoint x="195" y="310" as="sourcePoint" />
            <mxPoint x="410" y="500" as="targetPoint" />
            <Array as="points">
              <mxPoint x="195" y="391" />
            </Array>
          </mxGeometry>
        </mxCell>
        <mxCell id="cIGKvNe0aCiiyJrsT4cx-13" value="" style="sketch=0;points=[[0,0,0],[0.25,0,0],[0.5,0,0],[0.75,0,0],[1,0,0],[0,1,0],[0.25,1,0],[0.5,1,0],[0.75,1,0],[1,1,0],[0,0.25,0],[0,0.5,0],[0,0.75,0],[1,0.25,0],[1,0.5,0],[1,0.75,0]];outlineConnect=0;fontColor=#232F3E;fillColor=#8C4FFF;strokeColor=#ffffff;dashed=0;verticalLabelPosition=bottom;verticalAlign=top;align=center;html=1;fontSize=12;fontStyle=0;aspect=fixed;shape=mxgraph.aws4.resourceIcon;resIcon=mxgraph.aws4.managed_streaming_for_kafka;" vertex="1" parent="1">
          <mxGeometry x="176.5" y="363" width="37" height="37" as="geometry" />
        </mxCell>
        <mxCell id="cIGKvNe0aCiiyJrsT4cx-17" value="listOfDoctor" style="text;html=1;strokeColor=none;fillColor=none;align=center;verticalAlign=middle;whiteSpace=wrap;rounded=0;" vertex="1" parent="1">
          <mxGeometry x="400" y="260" width="60" height="30" as="geometry" />
        </mxCell>
        <mxCell id="cIGKvNe0aCiiyJrsT4cx-21" value="{kafka.license.retrival.topic}&lt;br&gt;docID&lt;br&gt;email&lt;br&gt;providerId" style="text;html=1;strokeColor=none;fillColor=none;align=center;verticalAlign=middle;whiteSpace=wrap;rounded=0;" vertex="1" parent="1">
          <mxGeometry x="69" y="366.5" width="60" height="30" as="geometry" />
        </mxCell>
        <mxCell id="cIGKvNe0aCiiyJrsT4cx-23" value="doctor&lt;br&gt;doctor_license" style="shape=cylinder3;whiteSpace=wrap;html=1;boundedLbl=1;backgroundOutline=1;size=15;" vertex="1" parent="1">
          <mxGeometry x="740" y="40" width="80" height="80" as="geometry" />
        </mxCell>
        <mxCell id="cIGKvNe0aCiiyJrsT4cx-24" value="medallion" style="whiteSpace=wrap;html=1;aspect=fixed;" vertex="1" parent="1">
          <mxGeometry x="730" y="460" width="80" height="80" as="geometry" />
        </mxCell>
        <mxCell id="cIGKvNe0aCiiyJrsT4cx-25" value="" style="endArrow=classic;startArrow=classic;html=1;rounded=0;exitX=1.025;exitY=0.154;exitDx=0;exitDy=0;exitPerimeter=0;" edge="1" parent="1">
          <mxGeometry width="50" height="50" relative="1" as="geometry">
            <mxPoint x="660" y="242.32000000000005" as="sourcePoint" />
            <mxPoint x="777" y="440" as="targetPoint" />
            <Array as="points">
              <mxPoint x="777" y="242" />
            </Array>
          </mxGeometry>
        </mxCell>
        <mxCell id="cIGKvNe0aCiiyJrsT4cx-26" value="if providerId not present" style="text;html=1;strokeColor=none;fillColor=none;align=center;verticalAlign=middle;whiteSpace=wrap;rounded=0;" vertex="1" parent="1">
          <mxGeometry x="680" y="220" width="90" height="30" as="geometry" />
        </mxCell>
        <mxCell id="cIGKvNe0aCiiyJrsT4cx-28" value="/getMembership" style="text;html=1;strokeColor=none;fillColor=none;align=center;verticalAlign=middle;whiteSpace=wrap;rounded=0;" vertex="1" parent="1">
          <mxGeometry x="758" y="430" width="60" height="30" as="geometry" />
        </mxCell>
        <mxCell id="cIGKvNe0aCiiyJrsT4cx-31" value="2" style="ellipse;whiteSpace=wrap;html=1;aspect=fixed;strokeWidth=2;fontFamily=Tahoma;spacingBottom=4;spacingRight=2;strokeColor=#d3d3d3;" vertex="1" parent="1">
          <mxGeometry x="109" y="330" width="20" height="20" as="geometry" />
        </mxCell>
        <mxCell id="cIGKvNe0aCiiyJrsT4cx-32" value="3" style="ellipse;whiteSpace=wrap;html=1;aspect=fixed;strokeWidth=2;fontFamily=Tahoma;spacingBottom=4;spacingRight=2;strokeColor=#d3d3d3;" vertex="1" parent="1">
          <mxGeometry x="778" y="220" width="20" height="20" as="geometry" />
        </mxCell>
        <mxCell id="cIGKvNe0aCiiyJrsT4cx-37" value="/getLicenses" style="text;html=1;strokeColor=none;fillColor=none;align=center;verticalAlign=middle;whiteSpace=wrap;rounded=0;" vertex="1" parent="1">
          <mxGeometry x="660" y="476.5" width="60" height="30" as="geometry" />
        </mxCell>
        <mxCell id="cIGKvNe0aCiiyJrsT4cx-39" value="" style="endArrow=classic;startArrow=classic;html=1;rounded=0;entryX=1;entryY=1;entryDx=0;entryDy=0;exitX=0;exitY=0.5;exitDx=0;exitDy=0;" edge="1" parent="1" source="cIGKvNe0aCiiyJrsT4cx-24">
          <mxGeometry width="50" height="50" relative="1" as="geometry">
            <mxPoint x="650" y="530" as="sourcePoint" />
            <mxPoint x="650" y="310" as="targetPoint" />
            <Array as="points">
              <mxPoint x="650" y="500" />
            </Array>
          </mxGeometry>
        </mxCell>
        <mxCell id="cIGKvNe0aCiiyJrsT4cx-40" value="4" style="ellipse;whiteSpace=wrap;html=1;aspect=fixed;strokeWidth=2;fontFamily=Tahoma;spacingBottom=4;spacingRight=2;strokeColor=#d3d3d3;" vertex="1" parent="1">
          <mxGeometry x="650" y="343" width="20" height="20" as="geometry" />
        </mxCell>
        <mxCell id="cIGKvNe0aCiiyJrsT4cx-43" value="" style="endArrow=classic;startArrow=classic;html=1;rounded=0;exitX=1.059;exitY=0.415;exitDx=0;exitDy=0;exitPerimeter=0;" edge="1" parent="1">
          <mxGeometry width="50" height="50" relative="1" as="geometry">
            <mxPoint x="240.00000000000017" y="264.35" as="sourcePoint" />
            <mxPoint x="580" y="264" as="targetPoint" />
          </mxGeometry>
        </mxCell>
        <mxCell id="cIGKvNe0aCiiyJrsT4cx-44" value="" style="endArrow=classic;startArrow=classic;html=1;rounded=0;entryX=0;entryY=0;entryDx=0;entryDy=52.5;entryPerimeter=0;" edge="1" parent="1" target="cIGKvNe0aCiiyJrsT4cx-23">
          <mxGeometry width="50" height="50" relative="1" as="geometry">
            <mxPoint x="610" y="230" as="sourcePoint" />
            <mxPoint x="710" y="98" as="targetPoint" />
            <Array as="points">
              <mxPoint x="610" y="93" />
            </Array>
          </mxGeometry>
        </mxCell>
        <mxCell id="cIGKvNe0aCiiyJrsT4cx-45" value="" style="endArrow=classic;startArrow=classic;html=1;rounded=0;exitX=0.75;exitY=0;exitDx=0;exitDy=0;entryX=0.5;entryY=1;entryDx=0;entryDy=0;entryPerimeter=0;" edge="1" parent="1" source="cIGKvNe0aCiiyJrsT4cx-2" target="cIGKvNe0aCiiyJrsT4cx-23">
          <mxGeometry width="50" height="50" relative="1" as="geometry">
            <mxPoint x="690" y="200" as="sourcePoint" />
            <mxPoint x="740" y="150" as="targetPoint" />
            <Array as="points">
              <mxPoint x="640" y="160" />
              <mxPoint x="780" y="160" />
            </Array>
          </mxGeometry>
        </mxCell>
      </root>
    </mxGraphModel>
  </diagram>
</mxfile>
